<svg xmlns="http://www.w3.org/2000/svg" xmlns:xlink="http://www.w3.org/1999/xlink" width="50" zoomAndPan="magnify" viewBox="0 0 37.5 37.499999" height="50" preserveAspectRatio="xMidYMid meet" version="1.2"><defs><clipPath id="71da0b0935"><path d="M 2.683594 0.320312 L 34.511719 0.320312 L 34.511719 36.585938 L 2.683594 36.585938 Z M 2.683594 0.320312 "/></clipPath><clipPath id="6597db89d4"><path d="M 9.125 9.363281 L 27.628906 9.363281 L 27.628906 27.867188 L 9.125 27.867188 Z M 9.125 9.363281 "/></clipPath></defs><g id="98464609f7"><g clip-rule="nonzero" clip-path="url(#71da0b0935)"><path style=" stroke:none;fill-rule:nonzero;fill:#ffffff;fill-opacity:1;" d="M 34.230469 27.152344 L 34.230469 9.753906 C 34.230469 9.503906 34.09375 9.273438 33.878906 9.148438 L 18.808594 0.445312 C 18.59375 0.320312 18.324219 0.320312 18.109375 0.445312 L 3.039062 9.148438 C 2.820312 9.273438 2.6875 9.503906 2.6875 9.753906 L 2.6875 27.152344 C 2.6875 27.40625 2.820312 27.636719 3.039062 27.761719 L 18.109375 36.460938 C 18.324219 36.585938 18.59375 36.585938 18.808594 36.460938 L 33.878906 27.761719 C 34.09375 27.636719 34.230469 27.40625 34.230469 27.152344 "/></g><g clip-rule="nonzero" clip-path="url(#6597db89d4)"><path style=" stroke:none;fill-rule:nonzero;fill:#1ddd81;fill-opacity:1;" d="M 10.898438 11.53125 C 11.121094 11.308594 11.453125 11.644531 11.234375 11.867188 C 10.890625 12.210938 11.269531 12.859375 10.851562 12.890625 C 10.390625 12.925781 10.589844 11.839844 10.898438 11.53125 Z M 11.476562 24.964844 C 12.015625 24.964844 12.015625 25.785156 11.476562 25.785156 C 10.9375 25.785156 10.9375 24.964844 11.476562 24.964844 Z M 24.820312 24.964844 C 24.28125 24.964844 24.28125 25.785156 24.820312 25.785156 C 25.363281 25.785156 25.363281 24.964844 24.820312 24.964844 Z M 16.929688 19.128906 L 10.257812 25.242188 C 10.140625 25.355469 10.148438 25.503906 10.277344 25.628906 L 11.269531 26.621094 C 11.367188 26.714844 11.519531 26.710938 11.621094 26.605469 L 17.699219 19.972656 Z M 18.117188 20.425781 L 12.003906 27.089844 C 11.65625 27.394531 11.140625 27.371094 10.808594 27.03125 L 9.789062 26.011719 C 9.480469 25.699219 9.476562 25.125 9.84375 24.789062 L 16.511719 18.675781 L 15.164062 17.207031 C 13.09375 17.757812 10.367188 15.609375 9.855469 13.246094 C 9.132812 9.917969 12.785156 9.566406 15.117188 11.898438 C 16.132812 12.914062 16.925781 14.472656 16.574219 15.796875 L 18.113281 17.210938 L 20.023438 15.460938 L 20.039062 13.535156 C 20.042969 13.15625 20.191406 12.828125 20.476562 12.574219 L 23.820312 9.59375 C 24.078125 9.363281 24.378906 9.433594 24.625 9.671875 C 24.871094 9.898438 25.15625 10.167969 24.804688 10.574219 L 23.03125 12.601562 L 25.039062 10.8125 C 25.253906 10.621094 25.585938 10.632812 25.789062 10.835938 C 26.070312 11.101562 26.4375 11.386719 26.050781 11.824219 L 24.261719 13.828125 L 26.289062 12.058594 C 26.550781 11.832031 26.847656 11.902344 27.09375 12.136719 C 27.335938 12.367188 27.628906 12.640625 27.269531 13.042969 L 24.289062 16.386719 C 24.035156 16.671875 23.707031 16.820312 23.328125 16.824219 L 21.402344 16.839844 L 19.714844 18.679688 L 26.457031 24.859375 C 26.761719 25.207031 26.738281 25.730469 26.394531 26.058594 L 25.375 27.074219 C 25.027344 27.398438 24.480469 27.371094 24.160156 27.019531 Z M 19.261719 18.261719 L 21.039062 16.328125 C 21.097656 16.261719 21.179688 16.226562 21.261719 16.226562 L 23.320312 16.207031 C 23.523438 16.207031 23.691406 16.128906 23.828125 15.976562 L 26.777344 12.667969 C 26.882812 12.546875 26.742188 12.46875 26.648438 12.5625 L 23.910156 14.953125 C 23.558594 15.261719 23.367188 14.972656 23.148438 14.757812 C 22.992188 14.597656 22.984375 14.335938 23.132812 14.167969 L 25.539062 11.472656 C 25.648438 11.347656 25.488281 11.238281 25.367188 11.347656 L 22.695312 13.730469 C 22.339844 14.046875 22.144531 13.753906 21.929688 13.535156 C 21.769531 13.378906 21.761719 13.121094 21.910156 12.953125 L 24.304688 10.210938 C 24.421875 10.074219 24.277344 10 24.183594 10.097656 L 20.886719 13.035156 C 20.734375 13.171875 20.65625 13.339844 20.65625 13.542969 L 20.636719 15.601562 C 20.636719 15.695312 20.59375 15.777344 20.527344 15.832031 L 18.570312 17.628906 Z M 15 11.382812 C 14.636719 11.5625 14.359375 11.011719 14.722656 10.828125 C 16.941406 9.726562 19.542969 9.652344 21.820312 10.632812 C 22.191406 10.792969 21.945312 11.359375 21.574219 11.199219 C 19.46875 10.292969 17.050781 10.355469 15 11.382812 Z M 25.664062 15.285156 C 25.507812 14.914062 26.074219 14.671875 26.234375 15.042969 C 27.390625 17.734375 27.070312 20.835938 25.382812 23.234375 C 25.148438 23.5625 24.644531 23.210938 24.878906 22.878906 C 26.441406 20.660156 26.742188 17.777344 25.664062 15.285156 Z M 22.113281 25.304688 C 22.472656 25.117188 22.757812 25.664062 22.398438 25.851562 C 19.765625 27.230469 16.597656 27.125 14.066406 25.5625 C 13.722656 25.351562 14.046875 24.828125 14.390625 25.039062 C 16.726562 26.480469 19.683594 26.582031 22.113281 25.304688 Z M 11.824219 22.472656 C 12.035156 22.816406 11.511719 23.140625 11.300781 22.796875 C 9.996094 20.683594 9.699219 18.105469 10.472656 15.746094 C 10.597656 15.359375 11.183594 15.550781 11.058594 15.933594 C 10.34375 18.125 10.617188 20.515625 11.824219 22.472656 Z M 15.496094 16.65625 L 24.609375 26.605469 C 24.734375 26.730469 24.878906 26.707031 24.996094 26.585938 L 26 25.582031 C 26.089844 25.480469 26.070312 25.335938 25.957031 25.226562 L 16.015625 16.117188 C 15.679688 15.8125 16.351562 15.546875 15.859375 14.148438 C 14.695312 10.820312 9.703125 9.632812 10.457031 13.117188 C 10.929688 15.28125 13.527344 17.171875 15.152344 16.566406 C 15.277344 16.519531 15.414062 16.558594 15.496094 16.65625 Z M 17.121094 14.703125 C 16.742188 14.84375 16.527344 14.265625 16.90625 14.125 C 17.792969 13.796875 18.769531 13.753906 19.6875 14.003906 C 20.078125 14.113281 19.914062 14.703125 19.523438 14.597656 C 18.734375 14.382812 17.894531 14.417969 17.121094 14.703125 Z M 22.265625 17.339844 C 22.160156 16.949219 22.753906 16.785156 22.859375 17.175781 C 23.167969 18.304688 23.035156 19.5 22.480469 20.527344 C 22.289062 20.886719 21.746094 20.59375 21.9375 20.234375 C 22.414062 19.351562 22.53125 18.308594 22.265625 17.339844 Z M 19.367188 22.199219 C 19.761719 22.109375 19.902344 22.710938 19.503906 22.800781 C 18.617188 23.003906 17.691406 22.9375 16.847656 22.609375 C 16.46875 22.464844 16.691406 21.890625 17.066406 22.035156 C 17.796875 22.320312 18.605469 22.375 19.367188 22.199219 Z M 14.828125 19.792969 C 14.972656 20.171875 14.398438 20.394531 14.253906 20.015625 C 13.964844 19.269531 13.878906 18.464844 14.003906 17.667969 C 14.066406 17.269531 14.675781 17.363281 14.613281 17.761719 C 14.503906 18.445312 14.578125 19.148438 14.828125 19.792969 Z M 10.804688 13.574219 C 10.695312 13.28125 11.140625 13.117188 11.246094 13.410156 C 11.652344 14.492188 12.671875 15.484375 13.757812 15.859375 C 14.054688 15.960938 13.898438 16.410156 13.605469 16.308594 C 12.382812 15.886719 11.261719 14.792969 10.804688 13.574219 Z M 10.804688 13.574219 "/></g></g></svg>