<svg xmlns="http://www.w3.org/2000/svg" xmlns:xlink="http://www.w3.org/1999/xlink" width="50" zoomAndPan="magnify" viewBox="0 0 37.5 37.499999" height="50" preserveAspectRatio="xMidYMid meet" version="1.2"><defs><clipPath id="ddd4e38043"><path d="M 10.738281 3.699219 L 26.28125 3.699219 L 26.28125 21.464844 L 10.738281 21.464844 Z M 10.738281 3.699219 "/></clipPath><clipPath id="4af3e542e9"><path d="M 14 8.140625 L 22.78125 8.140625 L 22.78125 17 L 14 17 Z M 14 8.140625 "/></clipPath></defs><g id="8888c89467"><g clip-rule="nonzero" clip-path="url(#ddd4e38043)"><path style=" stroke:none;fill-rule:nonzero;fill:#ffffff;fill-opacity:1;" d="M 26.1875 16.84375 L 26.1875 8.320312 C 26.1875 8.199219 26.121094 8.085938 26.015625 8.023438 L 18.636719 3.761719 C 18.527344 3.699219 18.398438 3.699219 18.292969 3.761719 L 10.910156 8.023438 C 10.804688 8.085938 10.738281 8.199219 10.738281 8.320312 L 10.738281 16.84375 C 10.738281 16.964844 10.804688 17.078125 10.910156 17.140625 L 18.292969 21.402344 C 18.398438 21.464844 18.527344 21.464844 18.636719 21.402344 L 26.015625 17.140625 C 26.121094 17.078125 26.1875 16.964844 26.1875 16.84375 "/></g><g clip-rule="nonzero" clip-path="url(#4af3e542e9)"><path style=" stroke:none;fill-rule:nonzero;fill:#1ddd81;fill-opacity:1;" d="M 14.75 9.179688 C 14.855469 9.074219 15.019531 9.234375 14.910156 9.339844 C 14.746094 9.503906 14.929688 9.816406 14.726562 9.832031 C 14.507812 9.847656 14.601562 9.328125 14.75 9.179688 Z M 15.027344 15.628906 C 15.289062 15.628906 15.289062 16.023438 15.027344 16.023438 C 14.769531 16.023438 14.769531 15.628906 15.027344 15.628906 Z M 21.433594 15.628906 C 21.175781 15.628906 21.175781 16.023438 21.433594 16.023438 C 21.695312 16.023438 21.695312 15.628906 21.433594 15.628906 Z M 17.644531 12.828125 L 14.441406 15.761719 C 14.386719 15.816406 14.390625 15.886719 14.453125 15.949219 L 14.929688 16.425781 C 14.976562 16.46875 15.046875 16.464844 15.097656 16.417969 L 18.015625 13.230469 Z M 18.214844 13.449219 L 15.28125 16.648438 C 15.113281 16.796875 14.867188 16.785156 14.707031 16.621094 L 14.21875 16.128906 C 14.070312 15.980469 14.066406 15.707031 14.242188 15.542969 L 17.445312 12.609375 L 16.800781 11.902344 C 15.804688 12.167969 14.496094 11.136719 14.25 10.003906 C 13.902344 8.40625 15.65625 8.234375 16.777344 9.355469 C 17.261719 9.84375 17.644531 10.59375 17.476562 11.226562 L 18.214844 11.90625 L 19.132812 11.066406 L 19.140625 10.140625 C 19.140625 9.960938 19.214844 9.800781 19.347656 9.679688 L 20.953125 8.25 C 21.078125 8.140625 21.222656 8.171875 21.339844 8.285156 C 21.457031 8.398438 21.59375 8.527344 21.425781 8.71875 L 20.574219 9.695312 L 21.539062 8.835938 C 21.644531 8.742188 21.800781 8.746094 21.898438 8.847656 C 22.035156 8.972656 22.210938 9.109375 22.023438 9.320312 L 21.167969 10.285156 L 22.140625 9.433594 C 22.265625 9.324219 22.40625 9.359375 22.523438 9.46875 C 22.640625 9.582031 22.78125 9.710938 22.609375 9.90625 L 21.179688 11.511719 C 21.058594 11.648438 20.898438 11.71875 20.71875 11.71875 L 19.792969 11.726562 L 18.984375 12.609375 L 22.21875 15.578125 C 22.367188 15.746094 22.355469 15.996094 22.191406 16.152344 L 21.703125 16.640625 C 21.53125 16.796875 21.269531 16.785156 21.117188 16.617188 Z M 18.765625 12.410156 L 19.617188 11.480469 C 19.648438 11.449219 19.6875 11.433594 19.726562 11.433594 L 20.714844 11.425781 C 20.8125 11.425781 20.894531 11.386719 20.957031 11.3125 L 22.375 9.726562 C 22.425781 9.667969 22.355469 9.628906 22.3125 9.675781 L 20.996094 10.824219 C 20.828125 10.972656 20.734375 10.832031 20.632812 10.726562 C 20.554688 10.652344 20.550781 10.527344 20.625 10.445312 L 21.777344 9.152344 C 21.832031 9.09375 21.753906 9.039062 21.695312 9.089844 L 20.414062 10.234375 C 20.242188 10.386719 20.148438 10.246094 20.046875 10.140625 C 19.96875 10.066406 19.964844 9.941406 20.039062 9.863281 L 21.1875 8.546875 C 21.242188 8.480469 21.171875 8.445312 21.128906 8.492188 L 19.546875 9.902344 C 19.472656 9.96875 19.4375 10.046875 19.433594 10.144531 L 19.425781 11.132812 C 19.425781 11.179688 19.40625 11.21875 19.375 11.246094 L 18.433594 12.105469 Z M 16.71875 9.109375 C 16.542969 9.195312 16.414062 8.929688 16.585938 8.84375 C 17.652344 8.3125 18.902344 8.277344 19.992188 8.746094 C 20.171875 8.824219 20.054688 9.097656 19.875 9.019531 C 18.863281 8.585938 17.703125 8.617188 16.71875 9.109375 Z M 21.839844 10.984375 C 21.761719 10.804688 22.035156 10.6875 22.113281 10.867188 C 22.667969 12.15625 22.515625 13.648438 21.703125 14.796875 C 21.59375 14.957031 21.351562 14.785156 21.460938 14.628906 C 22.210938 13.5625 22.355469 12.179688 21.839844 10.984375 Z M 20.136719 15.792969 C 20.308594 15.703125 20.445312 15.964844 20.273438 16.054688 C 19.007812 16.714844 17.484375 16.664062 16.273438 15.917969 C 16.105469 15.8125 16.261719 15.5625 16.425781 15.664062 C 17.550781 16.355469 18.96875 16.40625 20.136719 15.792969 Z M 15.195312 14.433594 C 15.296875 14.597656 15.046875 14.753906 14.945312 14.585938 C 14.316406 13.574219 14.175781 12.335938 14.546875 11.203125 C 14.605469 11.015625 14.886719 11.109375 14.828125 11.292969 C 14.484375 12.34375 14.617188 13.492188 15.195312 14.433594 Z M 16.957031 11.640625 L 21.332031 16.417969 C 21.394531 16.476562 21.464844 16.464844 21.519531 16.40625 L 22 15.925781 C 22.042969 15.875 22.035156 15.808594 21.980469 15.753906 L 17.207031 11.382812 C 17.046875 11.234375 17.367188 11.109375 17.132812 10.4375 C 16.574219 8.839844 14.175781 8.265625 14.539062 9.941406 C 14.765625 10.980469 16.011719 11.886719 16.792969 11.597656 C 16.851562 11.574219 16.917969 11.59375 16.957031 11.640625 Z M 17.738281 10.703125 C 17.554688 10.769531 17.453125 10.492188 17.636719 10.425781 C 18.0625 10.265625 18.53125 10.246094 18.96875 10.367188 C 19.15625 10.417969 19.078125 10.703125 18.890625 10.652344 C 18.511719 10.546875 18.109375 10.566406 17.738281 10.703125 Z M 20.207031 11.96875 C 20.15625 11.78125 20.441406 11.703125 20.492188 11.890625 C 20.640625 12.429688 20.578125 13.003906 20.3125 13.5 C 20.21875 13.671875 19.957031 13.53125 20.050781 13.359375 C 20.28125 12.933594 20.335938 12.433594 20.207031 11.96875 Z M 18.816406 14.300781 C 19.007812 14.257812 19.074219 14.546875 18.882812 14.589844 C 18.457031 14.6875 18.011719 14.65625 17.605469 14.5 C 17.425781 14.429688 17.53125 14.152344 17.710938 14.222656 C 18.0625 14.359375 18.449219 14.386719 18.816406 14.300781 Z M 16.636719 13.148438 C 16.707031 13.328125 16.429688 13.433594 16.363281 13.253906 C 16.222656 12.894531 16.183594 12.507812 16.242188 12.125 C 16.273438 11.933594 16.5625 11.980469 16.535156 12.171875 C 16.484375 12.5 16.515625 12.835938 16.636719 13.148438 Z M 14.707031 10.160156 C 14.652344 10.019531 14.867188 9.941406 14.917969 10.082031 C 15.113281 10.601562 15.601562 11.078125 16.125 11.257812 C 16.265625 11.304688 16.191406 11.519531 16.050781 11.472656 C 15.464844 11.273438 14.925781 10.746094 14.707031 10.160156 Z M 14.707031 10.160156 "/></g><g style="fill:#ffffff;fill-opacity:1;"><g transform="translate(4.004783, 25.5251)"><path style="stroke:none" d="M 1.28125 0.03125 C 1.070312 0.03125 0.882812 0 0.71875 -0.0625 C 0.550781 -0.132812 0.414062 -0.234375 0.3125 -0.359375 C 0.21875 -0.492188 0.171875 -0.65625 0.171875 -0.84375 L 0.90625 -0.84375 C 0.914062 -0.738281 0.953125 -0.660156 1.015625 -0.609375 C 1.078125 -0.554688 1.15625 -0.53125 1.25 -0.53125 C 1.351562 -0.53125 1.429688 -0.550781 1.484375 -0.59375 C 1.546875 -0.644531 1.578125 -0.710938 1.578125 -0.796875 C 1.578125 -0.859375 1.550781 -0.910156 1.5 -0.953125 C 1.457031 -1.003906 1.398438 -1.046875 1.328125 -1.078125 C 1.265625 -1.109375 1.171875 -1.140625 1.046875 -1.171875 C 0.867188 -1.234375 0.71875 -1.289062 0.59375 -1.34375 C 0.476562 -1.40625 0.378906 -1.488281 0.296875 -1.59375 C 0.210938 -1.707031 0.171875 -1.851562 0.171875 -2.03125 C 0.171875 -2.289062 0.265625 -2.492188 0.453125 -2.640625 C 0.648438 -2.796875 0.898438 -2.875 1.203125 -2.875 C 1.515625 -2.875 1.765625 -2.796875 1.953125 -2.640625 C 2.148438 -2.492188 2.253906 -2.289062 2.265625 -2.03125 L 1.53125 -2.03125 C 1.519531 -2.113281 1.484375 -2.179688 1.421875 -2.234375 C 1.359375 -2.285156 1.28125 -2.3125 1.1875 -2.3125 C 1.101562 -2.3125 1.035156 -2.289062 0.984375 -2.25 C 0.929688 -2.207031 0.90625 -2.144531 0.90625 -2.0625 C 0.90625 -1.96875 0.945312 -1.894531 1.03125 -1.84375 C 1.125 -1.789062 1.257812 -1.738281 1.4375 -1.6875 C 1.625 -1.625 1.773438 -1.5625 1.890625 -1.5 C 2.003906 -1.445312 2.101562 -1.363281 2.1875 -1.25 C 2.269531 -1.144531 2.3125 -1.007812 2.3125 -0.84375 C 2.3125 -0.675781 2.269531 -0.523438 2.1875 -0.390625 C 2.101562 -0.265625 1.984375 -0.160156 1.828125 -0.078125 C 1.671875 -0.00390625 1.488281 0.03125 1.28125 0.03125 Z M 1.28125 0.03125 "/></g></g><g style="fill:#ffffff;fill-opacity:1;"><g transform="translate(6.48205, 25.5251)"><path style="stroke:none" d="M 0.9375 -2.28125 L 0.9375 -1.703125 L 1.859375 -1.703125 L 1.859375 -1.171875 L 0.9375 -1.171875 L 0.9375 -0.546875 L 1.984375 -0.546875 L 1.984375 0 L 0.25 0 L 0.25 -2.828125 L 1.984375 -2.828125 L 1.984375 -2.28125 Z M 0.9375 -2.28125 "/></g></g><g style="fill:#ffffff;fill-opacity:1;"><g transform="translate(8.661241, 25.5251)"><path style="stroke:none" d="M 2.015625 -0.5 L 0.953125 -0.5 L 0.78125 0 L 0.0625 0 L 1.09375 -2.828125 L 1.890625 -2.828125 L 2.90625 0 L 2.1875 0 Z M 1.828125 -1.03125 L 1.484375 -2.0625 L 1.140625 -1.03125 Z M 1.828125 -1.03125 "/></g></g><g style="fill:#ffffff;fill-opacity:1;"><g transform="translate(11.629931, 25.5251)"><path style="stroke:none" d=""/></g></g><g style="fill:#ffffff;fill-opacity:1;"><g transform="translate(12.483885, 25.5251)"><path style="stroke:none" d="M 0.140625 -1.421875 C 0.140625 -1.703125 0.195312 -1.953125 0.3125 -2.171875 C 0.4375 -2.390625 0.601562 -2.554688 0.8125 -2.671875 C 1.03125 -2.796875 1.28125 -2.859375 1.5625 -2.859375 C 1.894531 -2.859375 2.179688 -2.769531 2.421875 -2.59375 C 2.660156 -2.414062 2.816406 -2.175781 2.890625 -1.875 L 2.140625 -1.875 C 2.085938 -1.988281 2.007812 -2.078125 1.90625 -2.140625 C 1.800781 -2.203125 1.679688 -2.234375 1.546875 -2.234375 C 1.335938 -2.234375 1.164062 -2.160156 1.03125 -2.015625 C 0.894531 -1.867188 0.828125 -1.671875 0.828125 -1.421875 C 0.828125 -1.171875 0.894531 -0.972656 1.03125 -0.828125 C 1.164062 -0.679688 1.335938 -0.609375 1.546875 -0.609375 C 1.679688 -0.609375 1.800781 -0.640625 1.90625 -0.703125 C 2.007812 -0.765625 2.085938 -0.851562 2.140625 -0.96875 L 2.890625 -0.96875 C 2.816406 -0.664062 2.660156 -0.425781 2.421875 -0.25 C 2.179688 -0.0703125 1.894531 0.015625 1.5625 0.015625 C 1.28125 0.015625 1.03125 -0.0390625 0.8125 -0.15625 C 0.601562 -0.28125 0.4375 -0.453125 0.3125 -0.671875 C 0.195312 -0.890625 0.140625 -1.140625 0.140625 -1.421875 Z M 0.140625 -1.421875 "/></g></g><g style="fill:#ffffff;fill-opacity:1;"><g transform="translate(15.553277, 25.5251)"><path style="stroke:none" d="M 2.015625 -0.5 L 0.953125 -0.5 L 0.78125 0 L 0.0625 0 L 1.09375 -2.828125 L 1.890625 -2.828125 L 2.90625 0 L 2.1875 0 Z M 1.828125 -1.03125 L 1.484375 -2.0625 L 1.140625 -1.03125 Z M 1.828125 -1.03125 "/></g></g><g style="fill:#ffffff;fill-opacity:1;"><g transform="translate(18.521967, 25.5251)"><path style="stroke:none" d="M 2.28125 -2.828125 L 2.28125 -2.28125 L 1.53125 -2.28125 L 1.53125 0 L 0.84375 0 L 0.84375 -2.28125 L 0.09375 -2.28125 L 0.09375 -2.828125 Z M 2.28125 -2.828125 "/></g></g><g style="fill:#ffffff;fill-opacity:1;"><g transform="translate(20.902563, 25.5251)"><path style="stroke:none" d="M 0.9375 -2.28125 L 0.9375 -1.703125 L 1.859375 -1.703125 L 1.859375 -1.171875 L 0.9375 -1.171875 L 0.9375 -0.546875 L 1.984375 -0.546875 L 1.984375 0 L 0.25 0 L 0.25 -2.828125 L 1.984375 -2.828125 L 1.984375 -2.28125 Z M 0.9375 -2.28125 "/></g></g><g style="fill:#ffffff;fill-opacity:1;"><g transform="translate(23.081754, 25.5251)"><path style="stroke:none" d="M 1.6875 0 L 1.109375 -1.0625 L 0.9375 -1.0625 L 0.9375 0 L 0.25 0 L 0.25 -2.828125 L 1.40625 -2.828125 C 1.625 -2.828125 1.8125 -2.785156 1.96875 -2.703125 C 2.132812 -2.628906 2.253906 -2.523438 2.328125 -2.390625 C 2.410156 -2.253906 2.453125 -2.101562 2.453125 -1.9375 C 2.453125 -1.75 2.394531 -1.582031 2.28125 -1.4375 C 2.175781 -1.289062 2.019531 -1.1875 1.8125 -1.125 L 2.46875 0 Z M 0.9375 -1.5625 L 1.359375 -1.5625 C 1.492188 -1.5625 1.59375 -1.585938 1.65625 -1.640625 C 1.71875 -1.703125 1.75 -1.789062 1.75 -1.90625 C 1.75 -2.019531 1.71875 -2.101562 1.65625 -2.15625 C 1.59375 -2.21875 1.492188 -2.25 1.359375 -2.25 L 0.9375 -2.25 Z M 0.9375 -1.5625 "/></g></g><g style="fill:#ffffff;fill-opacity:1;"><g transform="translate(25.708059, 25.5251)"><path style="stroke:none" d="M 0.9375 -2.828125 L 0.9375 0 L 0.25 0 L 0.25 -2.828125 Z M 0.9375 -2.828125 "/></g></g><g style="fill:#ffffff;fill-opacity:1;"><g transform="translate(26.896341, 25.5251)"><path style="stroke:none" d="M 2.78125 0 L 2.09375 0 L 0.9375 -1.75 L 0.9375 0 L 0.25 0 L 0.25 -2.828125 L 0.9375 -2.828125 L 2.09375 -1.078125 L 2.09375 -2.828125 L 2.78125 -2.828125 Z M 2.78125 0 "/></g></g><g style="fill:#ffffff;fill-opacity:1;"><g transform="translate(29.925454, 25.5251)"><path style="stroke:none" d="M 2.125 -1.9375 C 2.070312 -2.03125 2 -2.097656 1.90625 -2.140625 C 1.8125 -2.191406 1.703125 -2.21875 1.578125 -2.21875 C 1.347656 -2.21875 1.164062 -2.144531 1.03125 -2 C 0.894531 -1.851562 0.828125 -1.660156 0.828125 -1.421875 C 0.828125 -1.160156 0.894531 -0.957031 1.03125 -0.8125 C 1.175781 -0.664062 1.375 -0.59375 1.625 -0.59375 C 1.789062 -0.59375 1.929688 -0.632812 2.046875 -0.71875 C 2.171875 -0.800781 2.257812 -0.925781 2.3125 -1.09375 L 1.4375 -1.09375 L 1.4375 -1.59375 L 2.9375 -1.59375 L 2.9375 -0.953125 C 2.882812 -0.785156 2.796875 -0.625 2.671875 -0.46875 C 2.554688 -0.320312 2.40625 -0.203125 2.21875 -0.109375 C 2.03125 -0.0234375 1.816406 0.015625 1.578125 0.015625 C 1.296875 0.015625 1.046875 -0.0390625 0.828125 -0.15625 C 0.609375 -0.28125 0.4375 -0.453125 0.3125 -0.671875 C 0.195312 -0.890625 0.140625 -1.140625 0.140625 -1.421875 C 0.140625 -1.703125 0.195312 -1.953125 0.3125 -2.171875 C 0.4375 -2.390625 0.609375 -2.554688 0.828125 -2.671875 C 1.046875 -2.796875 1.296875 -2.859375 1.578125 -2.859375 C 1.910156 -2.859375 2.191406 -2.773438 2.421875 -2.609375 C 2.660156 -2.453125 2.816406 -2.226562 2.890625 -1.9375 Z M 2.125 -1.9375 "/></g></g><g style="fill:#ffffff;fill-opacity:1;"><g transform="translate(1.213037, 28.576964)"><path style="stroke:none" d="M 1.328125 0 L 1.03125 0 L 1.03125 -0.609375 L 0.46875 -0.609375 L 0.46875 0 L 0.171875 0 L 0.171875 -1.40625 L 0.46875 -1.40625 L 0.46875 -0.859375 L 1.03125 -0.859375 L 1.03125 -1.40625 L 1.328125 -1.40625 Z M 1.328125 0 "/></g><g transform="translate(2.723175, 28.576964)"><path style="stroke:none" d="M 0.59375 -0.890625 C 0.53125 -0.890625 0.484375 -0.867188 0.453125 -0.828125 C 0.421875 -0.785156 0.398438 -0.726562 0.390625 -0.65625 L 0.796875 -0.65625 C 0.796875 -0.726562 0.773438 -0.785156 0.734375 -0.828125 C 0.703125 -0.867188 0.65625 -0.890625 0.59375 -0.890625 Z M 0.640625 0.015625 C 0.460938 0.015625 0.328125 -0.03125 0.234375 -0.125 C 0.140625 -0.21875 0.09375 -0.351562 0.09375 -0.53125 C 0.09375 -0.707031 0.132812 -0.84375 0.21875 -0.9375 C 0.3125 -1.039062 0.4375 -1.09375 0.59375 -1.09375 C 0.75 -1.09375 0.867188 -1.046875 0.953125 -0.953125 C 1.035156 -0.867188 1.078125 -0.753906 1.078125 -0.609375 L 1.078125 -0.46875 L 0.390625 -0.46875 C 0.390625 -0.382812 0.410156 -0.316406 0.453125 -0.265625 C 0.503906 -0.222656 0.570312 -0.203125 0.65625 -0.203125 C 0.71875 -0.203125 0.773438 -0.207031 0.828125 -0.21875 C 0.890625 -0.226562 0.953125 -0.25 1.015625 -0.28125 L 1.015625 -0.0625 C 0.960938 -0.03125 0.90625 -0.0078125 0.84375 0 C 0.789062 0.0078125 0.722656 0.015625 0.640625 0.015625 Z M 0.640625 0.015625 "/></g><g transform="translate(3.889268, 28.576964)"><path style="stroke:none" d="M 0.84375 0 L 0.78125 -0.140625 L 0.765625 -0.140625 C 0.722656 -0.078125 0.675781 -0.0351562 0.625 -0.015625 C 0.570312 0.00390625 0.503906 0.015625 0.421875 0.015625 C 0.316406 0.015625 0.234375 -0.0078125 0.171875 -0.0625 C 0.109375 -0.125 0.078125 -0.210938 0.078125 -0.328125 C 0.078125 -0.441406 0.117188 -0.523438 0.203125 -0.578125 C 0.285156 -0.628906 0.40625 -0.65625 0.5625 -0.65625 L 0.75 -0.671875 L 0.75 -0.71875 C 0.75 -0.820312 0.691406 -0.875 0.578125 -0.875 C 0.492188 -0.875 0.394531 -0.847656 0.28125 -0.796875 L 0.1875 -1 C 0.3125 -1.0625 0.445312 -1.09375 0.59375 -1.09375 C 0.738281 -1.09375 0.847656 -1.0625 0.921875 -1 C 1.003906 -0.9375 1.046875 -0.84375 1.046875 -0.71875 L 1.046875 0 Z M 0.75 -0.5 L 0.640625 -0.5 C 0.554688 -0.488281 0.492188 -0.46875 0.453125 -0.4375 C 0.410156 -0.414062 0.390625 -0.375 0.390625 -0.3125 C 0.390625 -0.226562 0.4375 -0.1875 0.53125 -0.1875 C 0.59375 -0.1875 0.644531 -0.207031 0.6875 -0.25 C 0.726562 -0.289062 0.75 -0.34375 0.75 -0.40625 Z M 0.75 -0.5 "/></g><g transform="translate(5.081382, 28.576964)"><path style="stroke:none" d="M 0.453125 0 L 0.15625 0 L 0.15625 -1.5 L 0.453125 -1.5 Z M 0.453125 0 "/></g><g transform="translate(5.683703, 28.576964)"><path style="stroke:none" d="M 0.609375 -0.21875 C 0.660156 -0.21875 0.722656 -0.226562 0.796875 -0.25 L 0.796875 -0.03125 C 0.722656 0 0.628906 0.015625 0.515625 0.015625 C 0.398438 0.015625 0.316406 -0.0078125 0.265625 -0.0625 C 0.210938 -0.125 0.1875 -0.21875 0.1875 -0.34375 L 0.1875 -0.859375 L 0.046875 -0.859375 L 0.046875 -0.984375 L 0.203125 -1.078125 L 0.296875 -1.296875 L 0.484375 -1.296875 L 0.484375 -1.078125 L 0.78125 -1.078125 L 0.78125 -0.859375 L 0.484375 -0.859375 L 0.484375 -0.34375 C 0.484375 -0.300781 0.492188 -0.269531 0.515625 -0.25 C 0.535156 -0.226562 0.566406 -0.21875 0.609375 -0.21875 Z M 0.609375 -0.21875 "/></g><g transform="translate(6.540444, 28.576964)"><path style="stroke:none" d="M 1.140625 0 L 0.859375 0 L 0.859375 -0.625 C 0.859375 -0.78125 0.796875 -0.859375 0.671875 -0.859375 C 0.597656 -0.859375 0.539062 -0.828125 0.5 -0.765625 C 0.46875 -0.710938 0.453125 -0.625 0.453125 -0.5 L 0.453125 0 L 0.15625 0 L 0.15625 -1.5 L 0.453125 -1.5 L 0.453125 -1.1875 C 0.453125 -1.164062 0.445312 -1.113281 0.4375 -1.03125 L 0.4375 -0.9375 L 0.453125 -0.9375 C 0.515625 -1.039062 0.617188 -1.09375 0.765625 -1.09375 C 0.890625 -1.09375 0.984375 -1.054688 1.046875 -0.984375 C 1.109375 -0.921875 1.140625 -0.828125 1.140625 -0.703125 Z M 1.140625 0 "/></g><g transform="translate(7.837602, 28.576964)"><path style="stroke:none" d="M 0 -1.078125 L 0.328125 -1.078125 L 0.53125 -0.46875 C 0.539062 -0.414062 0.550781 -0.351562 0.5625 -0.28125 C 0.570312 -0.34375 0.585938 -0.40625 0.609375 -0.46875 L 0.8125 -1.078125 L 1.125 -1.078125 L 0.671875 0.140625 C 0.628906 0.253906 0.566406 0.335938 0.484375 0.390625 C 0.410156 0.441406 0.320312 0.46875 0.21875 0.46875 C 0.164062 0.46875 0.113281 0.460938 0.0625 0.453125 L 0.0625 0.21875 C 0.101562 0.226562 0.144531 0.234375 0.1875 0.234375 C 0.238281 0.234375 0.28125 0.21875 0.3125 0.1875 C 0.351562 0.15625 0.382812 0.109375 0.40625 0.046875 L 0.421875 0 Z M 0 -1.078125 "/></g><g transform="translate(8.960327, 28.576964)"><path style="stroke:none" d=""/></g><g transform="translate(9.473023, 28.576964)"><path style="stroke:none" d="M 0.765625 0 L 0.4375 -1.109375 L 0.421875 -1.109375 C 0.429688 -0.878906 0.4375 -0.726562 0.4375 -0.65625 L 0.4375 0 L 0.171875 0 L 0.171875 -1.40625 L 0.578125 -1.40625 L 0.921875 -0.328125 L 1.28125 -1.40625 L 1.671875 -1.40625 L 1.671875 0 L 1.40625 0 L 1.40625 -0.671875 C 1.40625 -0.703125 1.40625 -0.734375 1.40625 -0.765625 C 1.40625 -0.804688 1.410156 -0.914062 1.421875 -1.09375 L 1.40625 -1.09375 L 1.046875 0 Z M 0.765625 0 "/></g><g transform="translate(11.333953, 28.576964)"><path style="stroke:none" d="M 0.59375 -0.890625 C 0.53125 -0.890625 0.484375 -0.867188 0.453125 -0.828125 C 0.421875 -0.785156 0.398438 -0.726562 0.390625 -0.65625 L 0.796875 -0.65625 C 0.796875 -0.726562 0.773438 -0.785156 0.734375 -0.828125 C 0.703125 -0.867188 0.65625 -0.890625 0.59375 -0.890625 Z M 0.640625 0.015625 C 0.460938 0.015625 0.328125 -0.03125 0.234375 -0.125 C 0.140625 -0.21875 0.09375 -0.351562 0.09375 -0.53125 C 0.09375 -0.707031 0.132812 -0.84375 0.21875 -0.9375 C 0.3125 -1.039062 0.4375 -1.09375 0.59375 -1.09375 C 0.75 -1.09375 0.867188 -1.046875 0.953125 -0.953125 C 1.035156 -0.867188 1.078125 -0.753906 1.078125 -0.609375 L 1.078125 -0.46875 L 0.390625 -0.46875 C 0.390625 -0.382812 0.410156 -0.316406 0.453125 -0.265625 C 0.503906 -0.222656 0.570312 -0.203125 0.65625 -0.203125 C 0.71875 -0.203125 0.773438 -0.207031 0.828125 -0.21875 C 0.890625 -0.226562 0.953125 -0.25 1.015625 -0.28125 L 1.015625 -0.0625 C 0.960938 -0.03125 0.90625 -0.0078125 0.84375 0 C 0.789062 0.0078125 0.722656 0.015625 0.640625 0.015625 Z M 0.640625 0.015625 "/></g><g transform="translate(12.500046, 28.576964)"><path style="stroke:none" d="M 0.84375 0 L 0.78125 -0.140625 L 0.765625 -0.140625 C 0.722656 -0.078125 0.675781 -0.0351562 0.625 -0.015625 C 0.570312 0.00390625 0.503906 0.015625 0.421875 0.015625 C 0.316406 0.015625 0.234375 -0.0078125 0.171875 -0.0625 C 0.109375 -0.125 0.078125 -0.210938 0.078125 -0.328125 C 0.078125 -0.441406 0.117188 -0.523438 0.203125 -0.578125 C 0.285156 -0.628906 0.40625 -0.65625 0.5625 -0.65625 L 0.75 -0.671875 L 0.75 -0.71875 C 0.75 -0.820312 0.691406 -0.875 0.578125 -0.875 C 0.492188 -0.875 0.394531 -0.847656 0.28125 -0.796875 L 0.1875 -1 C 0.3125 -1.0625 0.445312 -1.09375 0.59375 -1.09375 C 0.738281 -1.09375 0.847656 -1.0625 0.921875 -1 C 1.003906 -0.9375 1.046875 -0.84375 1.046875 -0.71875 L 1.046875 0 Z M 0.75 -0.5 L 0.640625 -0.5 C 0.554688 -0.488281 0.492188 -0.46875 0.453125 -0.4375 C 0.410156 -0.414062 0.390625 -0.375 0.390625 -0.3125 C 0.390625 -0.226562 0.4375 -0.1875 0.53125 -0.1875 C 0.59375 -0.1875 0.644531 -0.207031 0.6875 -0.25 C 0.726562 -0.289062 0.75 -0.34375 0.75 -0.40625 Z M 0.75 -0.5 "/></g><g transform="translate(13.692159, 28.576964)"><path style="stroke:none" d="M 0.453125 0 L 0.15625 0 L 0.15625 -1.5 L 0.453125 -1.5 Z M 0.453125 0 "/></g><g transform="translate(14.29448, 28.576964)"><path style="stroke:none" d="M 0.90625 -0.3125 C 0.90625 -0.207031 0.863281 -0.125 0.78125 -0.0625 C 0.707031 -0.0078125 0.59375 0.015625 0.4375 0.015625 C 0.363281 0.015625 0.296875 0.0078125 0.234375 0 C 0.179688 -0.0078125 0.132812 -0.0234375 0.09375 -0.046875 L 0.09375 -0.28125 C 0.144531 -0.257812 0.203125 -0.238281 0.265625 -0.21875 C 0.335938 -0.195312 0.398438 -0.1875 0.453125 -0.1875 C 0.554688 -0.1875 0.609375 -0.21875 0.609375 -0.28125 C 0.609375 -0.3125 0.601562 -0.332031 0.59375 -0.34375 C 0.582031 -0.351562 0.554688 -0.367188 0.515625 -0.390625 C 0.484375 -0.410156 0.4375 -0.429688 0.375 -0.453125 C 0.289062 -0.492188 0.226562 -0.523438 0.1875 -0.546875 C 0.15625 -0.578125 0.128906 -0.613281 0.109375 -0.65625 C 0.0976562 -0.695312 0.09375 -0.742188 0.09375 -0.796875 C 0.09375 -0.890625 0.128906 -0.960938 0.203125 -1.015625 C 0.273438 -1.066406 0.378906 -1.09375 0.515625 -1.09375 C 0.640625 -1.09375 0.765625 -1.066406 0.890625 -1.015625 L 0.796875 -0.796875 C 0.742188 -0.816406 0.691406 -0.832031 0.640625 -0.84375 C 0.597656 -0.863281 0.554688 -0.875 0.515625 -0.875 C 0.421875 -0.875 0.375 -0.851562 0.375 -0.8125 C 0.375 -0.78125 0.390625 -0.753906 0.421875 -0.734375 C 0.453125 -0.710938 0.515625 -0.6875 0.609375 -0.65625 C 0.691406 -0.625 0.75 -0.59375 0.78125 -0.5625 C 0.820312 -0.53125 0.851562 -0.492188 0.875 -0.453125 C 0.894531 -0.421875 0.90625 -0.375 0.90625 -0.3125 Z M 0.90625 -0.3125 "/></g><g transform="translate(15.27554, 28.576964)"><path style="stroke:none" d="M 0.4375 -0.203125 C 0.40625 -0.078125 0.347656 0.0703125 0.265625 0.25 L 0.0625 0.25 C 0.101562 0.0820312 0.132812 -0.078125 0.15625 -0.234375 L 0.421875 -0.234375 Z M 0.4375 -0.203125 "/></g><g transform="translate(15.847986, 28.576964)"><path style="stroke:none" d=""/></g><g transform="translate(16.360681, 28.576964)"><path style="stroke:none" d="M 1.03125 0 L 0.9375 -0.328125 L 0.421875 -0.328125 L 0.328125 0 L 0 0 L 0.5 -1.40625 L 0.859375 -1.40625 L 1.359375 0 Z M 0.859375 -0.578125 C 0.765625 -0.890625 0.710938 -1.0625 0.703125 -1.09375 C 0.691406 -1.132812 0.679688 -1.164062 0.671875 -1.1875 C 0.648438 -1.101562 0.59375 -0.898438 0.5 -0.578125 Z M 0.859375 -0.578125 "/></g><g transform="translate(17.722408, 28.576964)"><path style="stroke:none" d="M 1.140625 0 L 0.859375 0 L 0.859375 -0.625 C 0.859375 -0.707031 0.84375 -0.765625 0.8125 -0.796875 C 0.78125 -0.835938 0.734375 -0.859375 0.671875 -0.859375 C 0.597656 -0.859375 0.539062 -0.832031 0.5 -0.78125 C 0.46875 -0.726562 0.453125 -0.632812 0.453125 -0.5 L 0.453125 0 L 0.15625 0 L 0.15625 -1.078125 L 0.375 -1.078125 L 0.421875 -0.9375 L 0.4375 -0.9375 C 0.46875 -0.988281 0.507812 -1.023438 0.5625 -1.046875 C 0.625 -1.078125 0.691406 -1.09375 0.765625 -1.09375 C 0.890625 -1.09375 0.984375 -1.054688 1.046875 -0.984375 C 1.109375 -0.921875 1.140625 -0.828125 1.140625 -0.703125 Z M 1.140625 0 "/></g><g transform="translate(19.019566, 28.576964)"><path style="stroke:none" d="M 0 -1.078125 L 0.328125 -1.078125 L 0.53125 -0.46875 C 0.539062 -0.414062 0.550781 -0.351562 0.5625 -0.28125 C 0.570312 -0.34375 0.585938 -0.40625 0.609375 -0.46875 L 0.8125 -1.078125 L 1.125 -1.078125 L 0.671875 0.140625 C 0.628906 0.253906 0.566406 0.335938 0.484375 0.390625 C 0.410156 0.441406 0.320312 0.46875 0.21875 0.46875 C 0.164062 0.46875 0.113281 0.460938 0.0625 0.453125 L 0.0625 0.21875 C 0.101562 0.226562 0.144531 0.234375 0.1875 0.234375 C 0.238281 0.234375 0.28125 0.21875 0.3125 0.1875 C 0.351562 0.15625 0.382812 0.109375 0.40625 0.046875 L 0.421875 0 Z M 0 -1.078125 "/></g><g transform="translate(20.142292, 28.576964)"><path style="stroke:none" d="M 0.609375 -0.21875 C 0.660156 -0.21875 0.722656 -0.226562 0.796875 -0.25 L 0.796875 -0.03125 C 0.722656 0 0.628906 0.015625 0.515625 0.015625 C 0.398438 0.015625 0.316406 -0.0078125 0.265625 -0.0625 C 0.210938 -0.125 0.1875 -0.21875 0.1875 -0.34375 L 0.1875 -0.859375 L 0.046875 -0.859375 L 0.046875 -0.984375 L 0.203125 -1.078125 L 0.296875 -1.296875 L 0.484375 -1.296875 L 0.484375 -1.078125 L 0.78125 -1.078125 L 0.78125 -0.859375 L 0.484375 -0.859375 L 0.484375 -0.34375 C 0.484375 -0.300781 0.492188 -0.269531 0.515625 -0.25 C 0.535156 -0.226562 0.566406 -0.21875 0.609375 -0.21875 Z M 0.609375 -0.21875 "/></g><g transform="translate(20.999033, 28.576964)"><path style="stroke:none" d="M 0.140625 -1.359375 C 0.140625 -1.453125 0.191406 -1.5 0.296875 -1.5 C 0.398438 -1.5 0.453125 -1.453125 0.453125 -1.359375 C 0.453125 -1.304688 0.4375 -1.265625 0.40625 -1.234375 C 0.382812 -1.210938 0.347656 -1.203125 0.296875 -1.203125 C 0.191406 -1.203125 0.140625 -1.253906 0.140625 -1.359375 Z M 0.453125 0 L 0.15625 0 L 0.15625 -1.078125 L 0.453125 -1.078125 Z M 0.453125 0 "/></g><g transform="translate(21.601354, 28.576964)"><path style="stroke:none" d="M 1.109375 0 L 0.828125 0 L 0.828125 -0.625 C 0.828125 -0.707031 0.8125 -0.765625 0.78125 -0.796875 C 0.757812 -0.835938 0.71875 -0.859375 0.65625 -0.859375 C 0.582031 -0.859375 0.53125 -0.828125 0.5 -0.765625 C 0.46875 -0.710938 0.453125 -0.625 0.453125 -0.5 L 0.453125 0 L 0.15625 0 L 0.15625 -1.078125 L 0.375 -1.078125 L 0.421875 -0.9375 L 0.4375 -0.9375 C 0.46875 -0.988281 0.507812 -1.023438 0.5625 -1.046875 C 0.613281 -1.078125 0.675781 -1.09375 0.75 -1.09375 C 0.90625 -1.09375 1.015625 -1.039062 1.078125 -0.9375 L 1.09375 -0.9375 C 1.125 -0.988281 1.164062 -1.023438 1.21875 -1.046875 C 1.28125 -1.078125 1.347656 -1.09375 1.421875 -1.09375 C 1.535156 -1.09375 1.625 -1.0625 1.6875 -1 C 1.75 -0.9375 1.78125 -0.835938 1.78125 -0.703125 L 1.78125 0 L 1.484375 0 L 1.484375 -0.625 C 1.484375 -0.707031 1.472656 -0.765625 1.453125 -0.796875 C 1.429688 -0.835938 1.390625 -0.859375 1.328125 -0.859375 C 1.253906 -0.859375 1.195312 -0.832031 1.15625 -0.78125 C 1.125 -0.726562 1.109375 -0.648438 1.109375 -0.546875 Z M 1.109375 0 "/></g><g transform="translate(23.539381, 28.576964)"><path style="stroke:none" d="M 0.59375 -0.890625 C 0.53125 -0.890625 0.484375 -0.867188 0.453125 -0.828125 C 0.421875 -0.785156 0.398438 -0.726562 0.390625 -0.65625 L 0.796875 -0.65625 C 0.796875 -0.726562 0.773438 -0.785156 0.734375 -0.828125 C 0.703125 -0.867188 0.65625 -0.890625 0.59375 -0.890625 Z M 0.640625 0.015625 C 0.460938 0.015625 0.328125 -0.03125 0.234375 -0.125 C 0.140625 -0.21875 0.09375 -0.351562 0.09375 -0.53125 C 0.09375 -0.707031 0.132812 -0.84375 0.21875 -0.9375 C 0.3125 -1.039062 0.4375 -1.09375 0.59375 -1.09375 C 0.75 -1.09375 0.867188 -1.046875 0.953125 -0.953125 C 1.035156 -0.867188 1.078125 -0.753906 1.078125 -0.609375 L 1.078125 -0.46875 L 0.390625 -0.46875 C 0.390625 -0.382812 0.410156 -0.316406 0.453125 -0.265625 C 0.503906 -0.222656 0.570312 -0.203125 0.65625 -0.203125 C 0.71875 -0.203125 0.773438 -0.207031 0.828125 -0.21875 C 0.890625 -0.226562 0.953125 -0.25 1.015625 -0.28125 L 1.015625 -0.0625 C 0.960938 -0.03125 0.90625 -0.0078125 0.84375 0 C 0.789062 0.0078125 0.722656 0.015625 0.640625 0.015625 Z M 0.640625 0.015625 "/></g><g transform="translate(24.705474, 28.576964)"><path style="stroke:none" d="M 0.4375 -0.203125 C 0.40625 -0.078125 0.347656 0.0703125 0.265625 0.25 L 0.0625 0.25 C 0.101562 0.0820312 0.132812 -0.078125 0.15625 -0.234375 L 0.421875 -0.234375 Z M 0.4375 -0.203125 "/></g><g transform="translate(25.27792, 28.576964)"><path style="stroke:none" d=""/></g><g transform="translate(25.790615, 28.576964)"><path style="stroke:none" d="M 1.03125 0 L 0.9375 -0.328125 L 0.421875 -0.328125 L 0.328125 0 L 0 0 L 0.5 -1.40625 L 0.859375 -1.40625 L 1.359375 0 Z M 0.859375 -0.578125 C 0.765625 -0.890625 0.710938 -1.0625 0.703125 -1.09375 C 0.691406 -1.132812 0.679688 -1.164062 0.671875 -1.1875 C 0.648438 -1.101562 0.59375 -0.898438 0.5 -0.578125 Z M 0.859375 -0.578125 "/></g><g transform="translate(27.152342, 28.576964)"><path style="stroke:none" d="M 1.140625 0 L 0.859375 0 L 0.859375 -0.625 C 0.859375 -0.707031 0.84375 -0.765625 0.8125 -0.796875 C 0.78125 -0.835938 0.734375 -0.859375 0.671875 -0.859375 C 0.597656 -0.859375 0.539062 -0.832031 0.5 -0.78125 C 0.46875 -0.726562 0.453125 -0.632812 0.453125 -0.5 L 0.453125 0 L 0.15625 0 L 0.15625 -1.078125 L 0.375 -1.078125 L 0.421875 -0.9375 L 0.4375 -0.9375 C 0.46875 -0.988281 0.507812 -1.023438 0.5625 -1.046875 C 0.625 -1.078125 0.691406 -1.09375 0.765625 -1.09375 C 0.890625 -1.09375 0.984375 -1.054688 1.046875 -0.984375 C 1.109375 -0.921875 1.140625 -0.828125 1.140625 -0.703125 Z M 1.140625 0 "/></g><g transform="translate(28.4495, 28.576964)"><path style="stroke:none" d="M 0 -1.078125 L 0.328125 -1.078125 L 0.53125 -0.46875 C 0.539062 -0.414062 0.550781 -0.351562 0.5625 -0.28125 C 0.570312 -0.34375 0.585938 -0.40625 0.609375 -0.46875 L 0.8125 -1.078125 L 1.125 -1.078125 L 0.671875 0.140625 C 0.628906 0.253906 0.566406 0.335938 0.484375 0.390625 C 0.410156 0.441406 0.320312 0.46875 0.21875 0.46875 C 0.164062 0.46875 0.113281 0.460938 0.0625 0.453125 L 0.0625 0.21875 C 0.101562 0.226562 0.144531 0.234375 0.1875 0.234375 C 0.238281 0.234375 0.28125 0.21875 0.3125 0.1875 C 0.351562 0.15625 0.382812 0.109375 0.40625 0.046875 L 0.421875 0 Z M 0 -1.078125 "/></g><g transform="translate(29.572226, 28.576964)"><path style="stroke:none" d="M 1.03125 0 L 0.953125 -0.375 L 0.84375 -0.84375 L 0.640625 0 L 0.328125 0 L 0.015625 -1.078125 L 0.3125 -1.078125 L 0.4375 -0.59375 C 0.457031 -0.507812 0.476562 -0.394531 0.5 -0.25 C 0.5 -0.289062 0.507812 -0.367188 0.53125 -0.484375 L 0.546875 -0.5625 L 0.6875 -1.078125 L 1 -1.078125 L 1.125 -0.5625 C 1.132812 -0.539062 1.140625 -0.515625 1.140625 -0.484375 C 1.148438 -0.460938 1.15625 -0.4375 1.15625 -0.40625 C 1.164062 -0.375 1.171875 -0.34375 1.171875 -0.3125 C 1.179688 -0.28125 1.1875 -0.257812 1.1875 -0.25 C 1.195312 -0.289062 1.207031 -0.351562 1.21875 -0.4375 C 1.226562 -0.519531 1.238281 -0.570312 1.25 -0.59375 L 1.375 -1.078125 L 1.671875 -1.078125 L 1.359375 0 Z M 1.03125 0 "/></g><g transform="translate(31.261615, 28.576964)"><path style="stroke:none" d="M 1.140625 0 L 0.859375 0 L 0.859375 -0.625 C 0.859375 -0.78125 0.796875 -0.859375 0.671875 -0.859375 C 0.597656 -0.859375 0.539062 -0.828125 0.5 -0.765625 C 0.46875 -0.710938 0.453125 -0.625 0.453125 -0.5 L 0.453125 0 L 0.15625 0 L 0.15625 -1.5 L 0.453125 -1.5 L 0.453125 -1.1875 C 0.453125 -1.164062 0.445312 -1.113281 0.4375 -1.03125 L 0.4375 -0.9375 L 0.453125 -0.9375 C 0.515625 -1.039062 0.617188 -1.09375 0.765625 -1.09375 C 0.890625 -1.09375 0.984375 -1.054688 1.046875 -0.984375 C 1.109375 -0.921875 1.140625 -0.828125 1.140625 -0.703125 Z M 1.140625 0 "/></g><g transform="translate(32.558773, 28.576964)"><path style="stroke:none" d="M 0.59375 -0.890625 C 0.53125 -0.890625 0.484375 -0.867188 0.453125 -0.828125 C 0.421875 -0.785156 0.398438 -0.726562 0.390625 -0.65625 L 0.796875 -0.65625 C 0.796875 -0.726562 0.773438 -0.785156 0.734375 -0.828125 C 0.703125 -0.867188 0.65625 -0.890625 0.59375 -0.890625 Z M 0.640625 0.015625 C 0.460938 0.015625 0.328125 -0.03125 0.234375 -0.125 C 0.140625 -0.21875 0.09375 -0.351562 0.09375 -0.53125 C 0.09375 -0.707031 0.132812 -0.84375 0.21875 -0.9375 C 0.3125 -1.039062 0.4375 -1.09375 0.59375 -1.09375 C 0.75 -1.09375 0.867188 -1.046875 0.953125 -0.953125 C 1.035156 -0.867188 1.078125 -0.753906 1.078125 -0.609375 L 1.078125 -0.46875 L 0.390625 -0.46875 C 0.390625 -0.382812 0.410156 -0.316406 0.453125 -0.265625 C 0.503906 -0.222656 0.570312 -0.203125 0.65625 -0.203125 C 0.71875 -0.203125 0.773438 -0.207031 0.828125 -0.21875 C 0.890625 -0.226562 0.953125 -0.25 1.015625 -0.28125 L 1.015625 -0.0625 C 0.960938 -0.03125 0.90625 -0.0078125 0.84375 0 C 0.789062 0.0078125 0.722656 0.015625 0.640625 0.015625 Z M 0.640625 0.015625 "/></g><g transform="translate(33.724866, 28.576964)"><path style="stroke:none" d="M 0.75 -1.09375 C 0.789062 -1.09375 0.828125 -1.09375 0.859375 -1.09375 L 0.828125 -0.8125 C 0.804688 -0.820312 0.78125 -0.828125 0.75 -0.828125 C 0.65625 -0.828125 0.582031 -0.800781 0.53125 -0.75 C 0.476562 -0.695312 0.453125 -0.628906 0.453125 -0.546875 L 0.453125 0 L 0.15625 0 L 0.15625 -1.078125 L 0.375 -1.078125 L 0.421875 -0.890625 L 0.4375 -0.890625 C 0.46875 -0.953125 0.507812 -1 0.5625 -1.03125 C 0.625 -1.070312 0.6875 -1.09375 0.75 -1.09375 Z M 0.75 -1.09375 "/></g><g transform="translate(34.62112, 28.576964)"><path style="stroke:none" d="M 0.59375 -0.890625 C 0.53125 -0.890625 0.484375 -0.867188 0.453125 -0.828125 C 0.421875 -0.785156 0.398438 -0.726562 0.390625 -0.65625 L 0.796875 -0.65625 C 0.796875 -0.726562 0.773438 -0.785156 0.734375 -0.828125 C 0.703125 -0.867188 0.65625 -0.890625 0.59375 -0.890625 Z M 0.640625 0.015625 C 0.460938 0.015625 0.328125 -0.03125 0.234375 -0.125 C 0.140625 -0.21875 0.09375 -0.351562 0.09375 -0.53125 C 0.09375 -0.707031 0.132812 -0.84375 0.21875 -0.9375 C 0.3125 -1.039062 0.4375 -1.09375 0.59375 -1.09375 C 0.75 -1.09375 0.867188 -1.046875 0.953125 -0.953125 C 1.035156 -0.867188 1.078125 -0.753906 1.078125 -0.609375 L 1.078125 -0.46875 L 0.390625 -0.46875 C 0.390625 -0.382812 0.410156 -0.316406 0.453125 -0.265625 C 0.503906 -0.222656 0.570312 -0.203125 0.65625 -0.203125 C 0.71875 -0.203125 0.773438 -0.207031 0.828125 -0.21875 C 0.890625 -0.226562 0.953125 -0.25 1.015625 -0.28125 L 1.015625 -0.0625 C 0.960938 -0.03125 0.90625 -0.0078125 0.84375 0 C 0.789062 0.0078125 0.722656 0.015625 0.640625 0.015625 Z M 0.640625 0.015625 "/></g></g></g></svg>